<svg id="Layer_1" data-name="Layer 1" xmlns="http://www.w3.org/2000/svg" width="140px" height="140px" viewBox="0 0 140 140"><defs><style>.cls-1{fill:none;}.cls-2{fill:#fff;}</style></defs><title>NPSA Kiosk Icons</title><circle class="cls-1" cx="106.28" cy="86.08" r="7.91"/><circle class="cls-1" cx="32.71" cy="86.08" r="7.91"/><path class="cls-2" d="M118.05,70h-4.12s-6.18-16.09-9.12-22.86S94.21,39,94.21,39H84.16a19.06,19.06,0,0,1,.68,4.51A16.36,16.36,0,0,1,84.47,47H95.1l8.54,19,.29,4H35.06l.3-4L43.9,47H54.45a13.54,13.54,0,0,1-.3-2.62A6.45,6.45,0,0,1,55.9,40c.27-.28.56,0,.87-1h-12s-7.65,1.37-10.6,8.14S25.06,70,25.06,70H20.94S15,69.6,15,78.73v34.14l9.14.13h-.09l.12,11.11s.3,6.15,8.83,6.15,8-5.9,8-5.9l0-11.47v0l56.64,0,.36.17,0,10.76s-.59,6.39,7.94,6.39,8.83-6.18,8.83-6.18l.08-11.14,9.11,0V78.73C124,69.6,118.05,70,118.05,70ZM32.71,94a7.91,7.91,0,1,1,7.9-7.91A7.91,7.91,0,0,1,32.71,94Zm73.57,0a7.91,7.91,0,1,1,7.91-7.91A7.91,7.91,0,0,1,106.28,94Z"/><path class="cls-2" d="M81,39.42c0-.09-.09-.42-.14-.42a9,9,0,0,0-2.09-2.65,9.51,9.51,0,0,0-3.1-1.82C74.5,34.09,73,33.69,71,33.16V23.44a5.27,5.27,0,0,1,3.74,3.88,2.92,2.92,0,0,0,3,2.48,2.83,2.83,0,0,0,2.08-.85,2.77,2.77,0,0,0,.86-2,5.66,5.66,0,0,0-.57-2.31,9.92,9.92,0,0,0-1.62-2.45,8.56,8.56,0,0,0-3.15-2.34,12.53,12.53,0,0,0-4.32-1V16.26c0-1.28-.52-1.92-1.51-1.92S68,15,68,16.31v2.48a11.86,11.86,0,0,0-7.35,3,8.93,8.93,0,0,0-2.54,6.59,8.93,8.93,0,0,0,1.32,5,8.69,8.69,0,0,0,3.37,3A30.67,30.67,0,0,0,68,38.37V49.23a6.25,6.25,0,0,1-2.47-1.11c-.45-.4-.77-1.12-1.06-1.12-.11-1-.22-.55-.31-.74-.31-.68-.68-1.74-1.1-3a2.64,2.64,0,0,0-1-1.42,3.1,3.1,0,0,0-1.78-.51,2.92,2.92,0,0,0-2.18.89,3.22,3.22,0,0,0-.88,2.19A9.75,9.75,0,0,0,57.64,47c.07,0,.15.26.24.48a9.83,9.83,0,0,0,2,2.95,11,11,0,0,0,3.37,2.4A13.37,13.37,0,0,0,68,54.06v3a2.9,2.9,0,0,0,.38,1.59,1.35,1.35,0,0,0,1.2.51,1.11,1.11,0,0,0,1.16-.63,5.59,5.59,0,0,0,.25-2V54a14.22,14.22,0,0,0,5.8-1.75,9.5,9.5,0,0,0,3.69-3.62c.32-.59.57-1.64.76-1.64a12,12,0,0,0,.5-3.42A10.89,10.89,0,0,0,81,39.42ZM64.92,30.57a3.6,3.6,0,0,1-1-2.79A3.63,3.63,0,0,1,65,24.89a11.26,11.26,0,0,1,3-1.54v8.95A16.29,16.29,0,0,1,64.92,30.57Zm9.76,17.17c-.86,1-1.67,1.41-3.67,1.72V39.23s.18-.23.24-.23c1.53,1,2.7,1.25,3.5,2A4.55,4.55,0,0,1,76,44.35,6.67,6.67,0,0,1,75.35,47C75.17,47,74.94,47.45,74.67,47.75Z"/></svg>
