<svg id="Layer_1" data-name="Layer 1" xmlns="http://www.w3.org/2000/svg" width="140px" height="140px" viewBox="0 0 140 140"><defs><style>.cls-1{fill:#fff;}</style></defs><title>NPSA Kiosk Icons</title><path class="cls-1" d="M89.27,68.84,76.13,59.65l-9.46-19Q63.53,36.4,59.19,36a8.83,8.83,0,0,0-6.7,1.84L33.06,53.34a5.06,5.06,0,0,0-1.31,2.1l-2.62,10c-1.24,5-1.85,8.4-1.85,10.24,0,2.8,1.41,4.2,4.21,4.2,2.55,0,4.07-1.31,4.61-3.94l3.41-16.3,6.68-5.16L36.08,99.58,23.82,120.16a7.42,7.42,0,0,0-.87,2.9q-.4,6.85,6,7.11A6.12,6.12,0,0,0,35,126.76l13.12-22.06a5.78,5.78,0,0,0,1-2.89L52.6,87.36l13.61,14.76,4.34,22.68a6,6,0,0,0,5.94,5.38q6.85.65,6.85-6.18L78.89,98.39a4.29,4.29,0,0,0-.8-1.84L61,76.72l4.61-19,3.46,7a12.63,12.63,0,0,0,1,1.31l14.47,10a5.82,5.82,0,0,0,3.29,1.17c2.53,0,3.81-1.35,3.81-4.07A5,5,0,0,0,89.27,68.84Z"/><path class="cls-1" d="M61.15,33.64a8.75,8.75,0,0,0,6.51-2.76,9.08,9.08,0,0,0,2.68-6.56,9.17,9.17,0,0,0-9.19-9.19,9.13,9.13,0,0,0-6.62,2.63,8.83,8.83,0,0,0-2.7,6.57,9.22,9.22,0,0,0,9.33,9.33Z"/><path class="cls-1" d="M93.91,16.26v2.52a14.62,14.62,0,0,1,4.29,1,8.47,8.47,0,0,1,3.12,2.34,9.93,9.93,0,0,1,1.62,2.45,5.66,5.66,0,0,1,.57,2.31,2.76,2.76,0,0,1-.85,2,2.82,2.82,0,0,1-2.07.85,2.91,2.91,0,0,1-3-2.48,5.29,5.29,0,0,0-3.71-3.88v9.72q2.9.79,4.61,1.45a9.57,9.57,0,0,1,3.07,1.89,8.76,8.76,0,0,1,2.23,3.07,9.66,9.66,0,0,1,.78,3.91,10.37,10.37,0,0,1-1.25,5,9.88,9.88,0,0,1-3.68,3.8A13.1,13.1,0,0,1,93.91,54v2.56a5.51,5.51,0,0,1-.27,2,1.14,1.14,0,0,1-1.18.63,1.31,1.31,0,0,1-1.18-.51,2.94,2.94,0,0,1-.34-1.59v-3a14.76,14.76,0,0,1-4.78-1.28,11.3,11.3,0,0,1-3.41-2.44,10.17,10.17,0,0,1-2-3,8,8,0,0,1-.65-3.1,2.83,2.83,0,0,1,.88-2,2.93,2.93,0,0,1,2.18-.9,3.09,3.09,0,0,1,1.78.49,2.53,2.53,0,0,1,1,1.38A29.52,29.52,0,0,0,87,46.09a5.64,5.64,0,0,0,1.41,1.86,6.31,6.31,0,0,0,2.51,1.28V38.37a28.56,28.56,0,0,1-5.23-1.93,8.81,8.81,0,0,1-3.41-3,8.93,8.93,0,0,1-1.31-5,8.94,8.94,0,0,1,2.56-6.59,11.46,11.46,0,0,1,7.39-3V16.31q0-2,1.47-2T93.91,16.26Zm-3,16V23.34a8.16,8.16,0,0,0-3.06,1.54,3.64,3.64,0,0,0-1.1,2.9,3.61,3.61,0,0,0,1,2.79A9.45,9.45,0,0,0,90.94,32.29Zm3,6.94V49.46a6.41,6.41,0,0,0,3.64-1.89,4.8,4.8,0,0,0,1.28-3.32,4,4,0,0,0-1.25-3.14A10.18,10.18,0,0,0,93.91,39.23Z"/></svg>
