<?xml version="1.0" encoding="utf-8"?>
<!-- Generator: Adobe Illustrator 19.0.0, SVG Export Plug-In . SVG Version: 6.00 Build 0)  -->
<svg version="1.1" id="Layer_1" xmlns="http://www.w3.org/2000/svg" xmlns:xlink="http://www.w3.org/1999/xlink" x="0px" y="0px"
	 width="140px" height="140px" viewBox="40 -50 140 140" style="enable-background:new 40 -50 140 140;" xml:space="preserve">
<style type="text/css">
	.st0{fill:#FFFFFF;}
</style>
<title>NPSA Kiosk Icons</title>
<path class="st0" d="M94.9,54.2c0,2-0.7,3.7-2.2,5.2s-3.2,2.2-5.2,2.2c-2,0-3.7-0.7-5.2-2.2s-2.2-3.2-2.2-5.2s0.7-3.7,2.2-5.2
	s3.2-2.2,5.2-2.2c2,0,3.7,0.7,5.2,2.2S94.9,52.2,94.9,54.2z M146.6,54.2c0,2-0.7,3.7-2.2,5.2c-1.5,1.5-3.2,2.2-5.2,2.2
	c-2,0-3.7-0.7-5.2-2.2c-1.5-1.5-2.2-3.2-2.2-5.2s0.7-3.7,2.2-5.2c1.5-1.5,3.2-2.2,5.2-2.2c2,0,3.7,0.7,5.2,2.2
	C145.9,50.5,146.6,52.2,146.6,54.2z M154-8.5V21c0,0.9-0.3,1.7-1,2.5c-0.6,0.7-1.4,1.1-2.3,1.2l-60.2,7c0.5,2.3,0.8,3.7,0.8,4
	c0,0.6-0.5,1.8-1.4,3.7h53.1c1,0,1.9,0.4,2.6,1.1c0.7,0.7,1.1,1.6,1.1,2.6s-0.4,1.9-1.1,2.6c-0.7,0.7-1.6,1.1-2.6,1.1H83.8
	c-1,0-1.9-0.4-2.6-1.1c-0.7-0.7-1.1-1.6-1.1-2.6c0-0.4,0.2-1,0.5-1.8c0.3-0.8,0.6-1.5,0.9-2.1c0.3-0.6,0.7-1.4,1.2-2.3
	c0.5-0.9,0.8-1.5,0.9-1.7L73.5-12.2H61.7c-1,0-1.9-0.4-2.6-1.1S58-14.9,58-15.9s0.4-1.9,1.1-2.6s1.6-1.1,2.6-1.1h14.8
	c0.6,0,1.2,0.1,1.6,0.4c0.5,0.3,0.9,0.5,1.1,0.9s0.5,0.8,0.8,1.4c0.2,0.6,0.4,1.1,0.5,1.5c0.1,0.4,0.2,1,0.3,1.7
	c0.1,0.7,0.2,1.2,0.3,1.5h69.3c1,0,1.9,0.4,2.6,1.1S154-9.5,154-8.5z"/>
</svg>
