<svg id="Layer_1" data-name="Layer 1" xmlns="http://www.w3.org/2000/svg" viewBox="0 0 140 140"><defs><style>.cls-1{fill:#fff;}</style></defs><title>NPSA Kiosk Icons</title><path class="cls-1" d="M100.24,98H88.11a1.78,1.78,0,0,1-1.41-1.26l-2.62-9.82A2.66,2.66,0,0,0,81.72,85H78.24a1.63,1.63,0,0,0-1.61,2.1l2.44,9.71a1.13,1.13,0,0,1-.09.78c-.12.15-.32.42-.56.42H65.5c-.24,0-.45-.26-.57-.42a.91.91,0,0,1-.1-.7l2.27-9.74a1.79,1.79,0,0,0-.29-1.49A1.73,1.73,0,0,0,65.46,85h-3a2.53,2.53,0,0,0-2.34,1.84l-2.45,9.89A1.75,1.75,0,0,1,56.29,98H43.5c-1.1,0-1.83.53-1.83,1.63V102a1.86,1.86,0,0,0,1.83,2H54.43a.58.58,0,0,1,.6.81L49.39,124.3a1.27,1.27,0,0,0,.23,1.27A1.52,1.52,0,0,0,51,126h3.29a2.43,2.43,0,0,0,2.39-1.61L62.26,105a1.54,1.54,0,0,1,1.43-1H80a1.64,1.64,0,0,1,1.44,1.08l5.71,19.31A2.44,2.44,0,0,0,89.56,126h3.67a1.5,1.5,0,0,0,1.32-.44,1.43,1.43,0,0,0,.2-1.36l-6.12-19.46a.58.58,0,0,1,0-.55.62.62,0,0,1,.52-.2h11c1.1,0,2.42-.89,2.42-2V99.63C102.67,98.53,101.34,98,100.24,98Z"/><rect class="cls-1" x="49.67" y="76" width="44" height="7" rx="1.99" ry="1.99"/><path class="cls-1" d="M131.93,43.12a2.8,2.8,0,0,0-1.55-1.54L73.24,18.31a6.75,6.75,0,0,0-4.52,0L13.76,41a3.64,3.64,0,0,0-2.13,3.7l.53,3.94a2.38,2.38,0,0,0,1.14,1.78,2.23,2.23,0,0,0,1.12.29,3.26,3.26,0,0,0,1.12-.2l4.14-1.65v78.56A2.46,2.46,0,0,0,22.28,130h4.21c1.58,0,3.18-1,3.18-2.61V44.74L69.43,28.3a5.29,5.29,0,0,1,3.38,0l41.77,16.24c0,.05.08.1.08.15v82.72a2.44,2.44,0,0,0,2.59,2.61h4.21c1.58,0,3.21-1,3.21-2.61v-79l2.56,1.07a2.86,2.86,0,0,0,3.67-1.58L132,45.3A2.8,2.8,0,0,0,131.93,43.12Z"/></svg>