<svg id="Layer_1" data-name="Layer 1" xmlns="http://www.w3.org/2000/svg" width="140px" height="140px" viewBox="0 0 140 140"><defs><style>.cls-1{fill:#fff;}</style></defs><title>NPSA Kiosk Icons</title><circle class="cls-1" cx="25" cy="45.45" r="4.74"/><path class="cls-1" d="M46.67,42.73c-1.78-1.67-5-4.42-6.18-5.44-2.51-2.2-12,.52-19.05-6.18-3.7-3.54-5.23-11.41.31-16.12a11.86,11.86,0,0,1,15.81.52c8.74,8.74,4.24,15.76,6.39,17.9,1.68,1.68,4.71,4.08,6,5.23s1.26,1.88.73,2.51A15.08,15.08,0,0,1,49,43C48.45,43.46,47.82,43.77,46.67,42.73Z"/><circle class="cls-1" cx="82.37" cy="26.19" r="8"/><path class="cls-1" d="M66.23,123.26a5.63,5.63,0,1,0,10.93,2.68c1-4.16,4.58-19,5-20.81a25.54,25.54,0,0,1,1.47-3.88C84,100.1,94.41,81.47,94.41,81.47s11.73,42.38,12.31,44.33a5.63,5.63,0,0,0,10.78-3.23l-12.3-54.4L86,71.94s-12.25,24.5-12.88,26a25.28,25.28,0,0,0-1.57,4.5C71.17,104.19,66.73,120.87,66.23,123.26Z"/><path class="cls-1" d="M52.32,48.65a4.1,4.1,0,0,1,4.56-6.81c1.82,1.1,9.57,5.19,9.57,5.19s6.7-5.87,7.64-6.81A8,8,0,0,1,77.77,38c1.57-.42,15.81-4,17.27-4.29s4,.32,6.18,1.57,12,6.7,13.3,7.64a11.76,11.76,0,0,1,3.35,3.45c.84,1.47,5,8.94,5.74,10.18a4.1,4.1,0,0,1-7.31,3.73c-1.37-2.18-4.72-8.88-4.72-8.88A7.18,7.18,0,0,0,109,49c-.94-.52-9.11-4.71-9.11-4.71l5,19.66L85.51,68,78.29,47.55c-1.68,1.15-8.59,6.17-9.84,6.91a4.15,4.15,0,0,1-4.4,0C62.48,53.51,54,49.64,52.32,48.65Z"/></svg>
